<?xml version="1.0" encoding="utf-8"?>
<!-- Generator: Adobe Illustrator 16.0.0, SVG Export Plug-In . SVG Version: 6.00 Build 0)  -->
<!DOCTYPE svg PUBLIC "-//W3C//DTD SVG 1.1//EN" "http://www.w3.org/Graphics/SVG/1.1/DTD/svg11.dtd">
<svg version="1.1" id="BRYDGE_copy_as_shapes_1_" xmlns="http://www.w3.org/2000/svg" xmlns:xlink="http://www.w3.org/1999/xlink"
	 x="0px" y="0px" width="720px" height="159.121px" viewBox="0 0 720 159.121" enable-background="new 0 0 720 159.121"
	 xml:space="preserve">
<g id="BRYDGE_copy_as_shapes">
	<g>
		<path fill="#FFFFFF" d="M88.936,76.422v-0.43c9.246-4.938,16.986-14.386,16.986-30.92c0-23.405-14.621-38.866-45.582-38.866H5.942
			c-1.29,0-2.15,0.859-2.15,2.147v141.721c0,1.287,0.86,2.146,2.15,2.146h52.247c32.036,0,50.312-13.959,50.312-42.945
			C108.501,91.455,97.966,79.858,88.936,76.422z M29.164,29.827c0-0.859,0.43-1.289,1.29-1.289h29.241
			c12.9,0,20.855,7.73,20.855,19.326c0,11.38-7.955,19.11-20.855,19.11H30.454c-0.86,0-1.29-0.429-1.29-1.288V29.827z
			 M60.984,129.889h-30.53c-0.86,0-1.29-0.431-1.29-1.288V90.593c0-0.857,0.43-1.287,1.29-1.287h30.531
			c14.191,0,22.146,8.158,22.146,20.184C83.13,121.73,75.175,129.889,60.984,129.889z M206.533,89.951
			c16.771-6.228,27.736-21.042,27.736-40.154c0-25.767-19.781-43.59-46.657-43.59h-56.547c-1.29,0-2.15,0.859-2.15,2.147v141.72
			c0,1.288,0.86,2.147,2.15,2.147h21.071c1.29,0,2.15-0.859,2.15-2.147V94.458c0-0.858,0.43-1.287,1.291-1.287h25.156l27.951,56.902
			c0.645,1.502,1.505,2.146,3.225,2.146h23.866c1.505,0,2.365-1.289,1.505-2.793L206.533,89.951z M186.752,70.41h-31.176
			c-0.86,0-1.291-0.43-1.291-1.289V30.256c0-0.859,0.43-1.289,1.291-1.289h31.176c13.331,0,22.361,8.16,22.361,20.829
			C209.114,62.25,200.083,70.41,186.752,70.41z M346.492,6.207h-20.856c-1.505,0-2.364,0.645-3.01,2.147l-28.811,56.688h-0.645
			L264.574,8.354c-0.645-1.503-1.72-2.147-3.01-2.147h-21.716c-1.505,0-2.15,1.074-1.72,2.147l42.357,84.173v57.547
			c0,1.288,0.86,2.147,2.15,2.147h21.071c1.29,0,2.15-0.859,2.15-2.147V92.527l42.357-84.173
			C348.642,7.28,348.212,6.207,346.492,6.207z M415.929,6.207h-52.247c-1.29,0-2.148,0.859-2.148,2.147v141.72
			c0,1.288,0.858,2.147,2.148,2.147h52.247c25.156,0,41.928-11.166,48.809-32.425c2.364-7.301,3.654-15.246,3.654-40.583
			c0-25.338-1.29-33.283-3.654-40.583C457.855,17.373,441.085,6.207,415.929,6.207z M440.226,110.994
			c-4.301,13.098-14.19,18.467-30.315,18.467h-21.716c-0.86,0-1.29-0.43-1.29-1.289V30.256c0-0.859,0.43-1.289,1.29-1.289h21.716
			c16.125,0,26.016,5.368,30.315,18.466c1.506,4.08,2.579,10.522,2.579,31.78C442.805,100.257,441.73,106.914,440.226,110.994z
			 M595.235,71.913h-48.377c-1.29,0-2.15,0.859-2.15,2.147v17.178c0,1.288,0.86,2.146,2.15,2.146h24.081
			c0.858,0,1.289,0.43,1.289,1.289c0,8.373-0.859,14.387-2.364,18.896c-3.87,11.812-14.836,18.253-27.736,18.253
			c-14.836,0-23.436-7.302-27.521-19.111c-1.721-5.367-2.579-12.883-2.579-33.498c0-20.829,0.858-28.129,2.579-33.498
			c4.086-11.81,12.686-19.11,27.521-19.11c14.19,0,23.006,6.442,29.456,18.037c0.431,0.858,1.505,1.503,2.795,1.073l18.062-7.945
			c1.073-0.644,1.289-1.933,0.858-3.006c-6.021-16.319-23.651-30.92-50.957-30.92c-25.801,0-44.722,12.025-52.247,35.215
			c-3.01,9.018-3.87,17.178-3.87,40.154c0,22.975,0.86,31.135,3.87,40.154c7.525,23.19,26.446,35.215,52.247,35.215
			c25.156,0,44.507-13.098,51.604-35.858c2.363-7.3,3.438-19.97,3.438-31.994V74.061C597.385,72.772,596.525,71.913,595.235,71.913z
			 M646.61,28.968h67.083c1.29,0,2.149-0.859,2.149-2.147V8.354c0-1.288-0.859-2.147-2.149-2.147H622.1
			c-1.29,0-2.149,0.859-2.149,2.147v141.72c0,1.288,0.859,2.147,2.149,2.147h91.595c1.29,0,2.149-0.859,2.149-2.147v-18.467
			c0-1.288-0.859-2.146-2.149-2.146H646.61c-0.859,0-1.29-0.43-1.29-1.289V91.24c0-0.859,0.431-1.289,1.29-1.289h56.548
			c1.29,0,2.148-0.859,2.148-2.146V69.336c0-1.289-0.858-2.147-2.148-2.147H646.61c-0.859,0-1.29-0.429-1.29-1.288V30.256
			C645.32,29.397,645.751,28.968,646.61,28.968z"/>
	</g>
</g>
</svg>
